<?xml version="1.0" encoding="UTF-8"?>
<svg id="_レイヤー_1" data-name="レイヤー 1" xmlns="http://www.w3.org/2000/svg" viewBox="0 0 792 792">
  <path d="M396,72c43.77,0,86.2,8.56,126.09,25.43,38.57,16.32,73.23,39.69,103.01,69.47,29.78,29.78,53.15,64.44,69.47,103.01,16.88,39.9,25.43,82.32,25.43,126.09s-8.56,86.2-25.43,126.09c-16.32,38.57-39.69,73.23-69.47,103.01-29.78,29.78-64.44,53.15-103.01,69.47-39.9,16.88-82.32,25.43-126.09,25.43s-86.2-8.56-126.09-25.43c-38.57-16.32-73.23-39.69-103.01-69.47-29.78-29.78-53.15-64.44-69.47-103.01-16.88-39.9-25.43-82.32-25.43-126.09s8.56-86.2,25.43-126.09c16.32-38.57,39.69-73.23,69.47-103.01,29.78-29.78,64.44-53.15,103.01-69.47,39.9-16.88,82.32-25.43,126.09-25.43M396,0C177.3,0,0,177.3,0,396s177.3,396,396,396,396-177.3,396-396S614.7,0,396,0h0Z"/>
  <rect x="360" y="162" width="72" height="468" rx="36" ry="36" transform="translate(0 792) rotate(-90)"/>
  <rect x="360" y="162" width="72" height="468" rx="36" ry="36"/>
</svg>